# xmcd CD database file
#
# Track frame offsets:
#	150
#	23477
#	39995
#	66942
#	89945
#	98197
#	111362
#	132917
#	158500
#	196300
#
# Disc length: 2731 seconds
#
# Revision: 0
# Processed by: cddbd v1.4PL0 Copyright (c) Steve Scherf et al.
# Submitted via: CDex 1.50
#
DISCID=810aa90a
DTITLE=Padnoise - Messagers
DYEAR=1992
DGENRE=New Age
TTITLE0=Nays
TTITLE1=Anne
TTITLE2=Arrivals
TTITLE3=Soir
TTITLE4=Natura
TTITLE5=Balade
TTITLE6=Rhodes
TTITLE7=Metamorphose
TTITLE8=Chenn
TTITLE9=Anne (Part II)
EXTD=YEAR: 1992
EXTT0=
EXTT1=
EXTT2=
EXTT3=
EXTT4=
EXTT5=
EXTT6=
EXTT7=
EXTT8=
EXTT9=
PLAYORDER=
